<svg xmlns="http://www.w3.org/2000/svg" viewBox="0 0 64 64" fill="none">
  <defs>
    <linearGradient id="bg" x1="0" y1="0" x2="64" y2="64" gradientUnits="userSpaceOnUse">
      <stop stop-color="#0EA5E9"/>
      <stop offset="0.5" stop-color="#2563EB"/>
      <stop offset="1" stop-color="#1E40AF"/>
    </linearGradient>
    <linearGradient id="foot" x1="20" y1="12" x2="44" y2="52" gradientUnits="userSpaceOnUse">
      <stop stop-color="#ffffff"/>
      <stop offset="1" stop-color="#DBEAFE"/>
    </linearGradient>
    <linearGradient id="scan" x1="8" y1="32" x2="56" y2="32" gradientUnits="userSpaceOnUse">
      <stop stop-color="#22D3EE" stop-opacity="0"/>
      <stop offset="0.5" stop-color="#22D3EE"/>
      <stop offset="1" stop-color="#22D3EE" stop-opacity="0"/>
    </linearGradient>
  </defs>
  <!-- Rounded square background -->
  <rect width="64" height="64" rx="16" fill="url(#bg)"/>
  <!-- Subtle inner glow -->
  <rect x="2" y="2" width="60" height="60" rx="14" fill="none" stroke="#ffffff" stroke-opacity="0.08" stroke-width="1"/>
  <!-- Scan line -->
  <rect x="8" y="31" width="48" height="2" rx="1" fill="url(#scan)"/>
  <!-- Stylized footprint (ball + heel) -->
  <path d="M38 12c3.5 0 6 2.8 6 6.8 0 3.4-1.3 6.2-3.7 8.2-1 .8-2.2 1.2-3.4 1.2-1.1 0-2-.3-2.8-1-1.9-1.5-2.9-4.2-2.9-7.6 0-4.2 2.4-7.6 6.8-7.6Z" fill="url(#foot)"/>
  <path d="M31 30c2.2 0 3.7 2.2 3.7 5.4 0 2.9-1.3 5.1-3.5 5.1-2 0-3.5-2-3.5-4.9 0-3.2 1.5-5.6 3.3-5.6Z" fill="url(#foot)"/>
  <!-- Measurement ticks -->
  <g stroke="#67E8F9" stroke-width="1.5" stroke-linecap="round" opacity="0.7">
    <path d="M14 22h3"/>
    <path d="M14 28h2"/>
    <path d="M14 34h3"/>
    <path d="M14 40h2"/>
    <path d="M14 46h3"/>
  </g>
  <!-- AI spark -->
  <path d="M48 38l1.2 3L52 42.2 49.2 43.4 48 46.4 46.8 43.4 44 42.2 46.8 41z" fill="#FDE68A"/>
  <circle cx="48" cy="42.2" r="0.8" fill="#F59E0B" opacity="0.9"/>
</svg>
